<svg width="7" height="11" viewBox="0 0 7 11" fill="none" xmlns="http://www.w3.org/2000/svg">
<path fill-rule="evenodd" clip-rule="evenodd" d="M1.18227 5.34959L6.04188 0.74954C6.08469 0.709252 6.11873 0.661048 6.14197 0.607782C6.16522 0.554517 6.1772 0.497274 6.1772 0.439443C6.1772 0.381612 6.16523 0.32437 6.14199 0.271106C6.11875 0.217843 6.08472 0.169642 6.04191 0.129359C5.95415 0.0465986 5.83658 0.000203291 5.71412 6.66483e-07C5.59166 -0.000201958 5.47392 0.045804 5.38585 0.128273L0.135913 5.0978C0.0929225 5.1381 0.0587352 5.18637 0.0353861 5.23974C0.0120369 5.29311 3.46753e-06 5.35049 5.62583e-10 5.40845C-2.75812e-06 5.46168 0.0101401 5.51442 0.0298749 5.564C0.0276842 5.57544 0.0258956 5.58687 0.0245157 5.59828C0.0165719 5.66394 0.0223379 5.72738 0.0414702 5.78483C0.0606025 5.84228 0.0927101 5.89256 0.135883 5.93268L5.40153 10.886C5.4898 10.9682 5.61674 11.0054 5.75546 10.9897C5.89418 10.9739 6.03378 10.9064 6.1447 10.8015C6.19892 10.7503 6.24425 10.6913 6.27801 10.6278C6.31177 10.5643 6.33326 10.4978 6.34121 10.4321C6.34915 10.3665 6.34339 10.303 6.32425 10.2456C6.30512 10.1881 6.27301 10.1379 6.22984 10.0977L1.18227 5.34959Z" fill="#1B1B1B" fill-opacity="0.5"/>
</svg>
