<svg width="13" height="9" viewBox="0 0 13 9" fill="none" xmlns="http://www.w3.org/2000/svg">
<path fill-rule="evenodd" clip-rule="evenodd" d="M6.41967 2.46611L11.6868 8.06441C11.7338 8.11472 11.7925 8.15219 11.8595 8.17461C11.9265 8.19703 12.0004 8.20393 12.0769 8.19492C12.1533 8.18591 12.2307 8.16116 12.3045 8.12214C12.3783 8.08312 12.447 8.03063 12.5065 7.96777C12.6288 7.83886 12.7073 7.67624 12.7255 7.51435C12.7437 7.35246 12.7001 7.20401 12.604 7.10046L6.8045 0.936311C6.75752 0.885773 6.69873 0.848113 6.63161 0.825573C6.56449 0.803032 6.49042 0.796072 6.4138 0.805105C6.33719 0.814139 6.25959 0.838981 6.18564 0.878155C6.17763 0.882399 6.16968 0.886801 6.16179 0.891358C6.11113 0.913491 6.06629 0.945145 6.02912 0.985146L6.00187 1.01412C5.99559 1.02035 5.98941 1.02669 5.98332 1.03313C5.97619 1.04068 5.9692 1.04833 5.96237 1.0561L0.392441 6.97728C0.298824 7.07773 0.256503 7.22218 0.27444 7.38004C0.292378 7.5379 0.369166 7.69676 0.488538 7.82298C0.546787 7.88468 0.614018 7.93627 0.686231 7.97469C0.758445 8.01311 0.834165 8.03756 0.908886 8.0466C0.983607 8.05564 1.0558 8.04908 1.12118 8.02731C1.18655 8.00554 1.24377 7.969 1.28942 7.91987L6.41967 2.46611Z" fill="white"/>
</svg>
