<svg width="126" height="30" viewBox="0 0 126 30" fill="none" xmlns="http://www.w3.org/2000/svg">
<path d="M27.389 1.964H29.565L30.942 5.959L32.336 1.964H34.495L32.421 7.455L33.951 11.297L37.368 1.93H39.918L35.09 14H33.067L30.942 8.934L28.834 14H26.811L22 1.93H24.516L27.95 11.297L29.446 7.455L27.389 1.964ZM45.8406 14.085C44.9566 14.085 44.152 13.915 43.4266 13.575C42.7126 13.235 42.095 12.776 41.5736 12.198C41.0636 11.6087 40.667 10.9513 40.3836 10.226C40.1003 9.48933 39.9586 8.73567 39.9586 7.965C39.9586 7.16033 40.106 6.39533 40.4006 5.67C40.7066 4.93333 41.1203 4.28167 41.6416 3.715C42.1743 3.137 42.7976 2.68367 43.5116 2.355C44.237 2.015 45.0303 1.845 45.8916 1.845C46.7643 1.845 47.5576 2.02067 48.2716 2.372C48.997 2.72333 49.6146 3.19367 50.1246 3.783C50.6346 4.37233 51.0313 5.02967 51.3146 5.755C51.598 6.48033 51.7396 7.22833 51.7396 7.999C51.7396 8.79233 51.5923 9.55733 51.2976 10.294C51.003 11.0193 50.5893 11.671 50.0566 12.249C49.5353 12.8157 48.912 13.2633 48.1866 13.592C47.4726 13.9207 46.6906 14.085 45.8406 14.085ZM42.3386 7.965C42.3386 8.48633 42.418 8.99067 42.5766 9.478C42.7353 9.96533 42.962 10.4017 43.2566 10.787C43.5626 11.161 43.931 11.4613 44.3616 11.688C44.8036 11.9033 45.3023 12.011 45.8576 12.011C46.4243 12.011 46.9286 11.8977 47.3706 11.671C47.8126 11.433 48.181 11.1213 48.4756 10.736C48.7703 10.3393 48.9913 9.903 49.1386 9.427C49.2973 8.93967 49.3766 8.45233 49.3766 7.965C49.3766 7.44367 49.2916 6.945 49.1216 6.469C48.963 5.98167 48.7306 5.551 48.4246 5.177C48.13 4.79167 47.7616 4.49133 47.3196 4.276C46.889 4.04933 46.4016 3.936 45.8576 3.936C45.2796 3.936 44.7696 4.055 44.3276 4.293C43.897 4.51967 43.5343 4.82567 43.2396 5.211C42.945 5.59633 42.7183 6.027 42.5596 6.503C42.4123 6.979 42.3386 7.46633 42.3386 7.965ZM58.6903 14.085C57.8063 14.085 57.0016 13.915 56.2763 13.575C55.5623 13.235 54.9446 12.776 54.4233 12.198C53.9133 11.6087 53.5166 10.9513 53.2333 10.226C52.9499 9.48933 52.8083 8.73567 52.8083 7.965C52.8083 7.16033 52.9556 6.39533 53.2503 5.67C53.5563 4.93333 53.9699 4.28167 54.4913 3.715C55.0239 3.137 55.6473 2.68367 56.3613 2.355C57.0866 2.015 57.8799 1.845 58.7413 1.845C59.6139 1.845 60.4073 2.02067 61.1213 2.372C61.8466 2.72333 62.4643 3.19367 62.9743 3.783C63.4843 4.37233 63.8809 5.02967 64.1643 5.755C64.4476 6.48033 64.5893 7.22833 64.5893 7.999C64.5893 8.79233 64.4419 9.55733 64.1473 10.294C63.8526 11.0193 63.4389 11.671 62.9062 12.249C62.3849 12.8157 61.7616 13.2633 61.0363 13.592C60.3223 13.9207 59.5403 14.085 58.6903 14.085ZM55.1883 7.965C55.1883 8.48633 55.2676 8.99067 55.4263 9.478C55.5849 9.96533 55.8116 10.4017 56.1063 10.787C56.4123 11.161 56.7806 11.4613 57.2113 11.688C57.6533 11.9033 58.1519 12.011 58.7073 12.011C59.2739 12.011 59.7783 11.8977 60.2203 11.671C60.6623 11.433 61.0306 11.1213 61.3253 10.736C61.6199 10.3393 61.8409 9.903 61.9883 9.427C62.1469 8.93967 62.2263 8.45233 62.2263 7.965C62.2263 7.44367 62.1413 6.945 61.9713 6.469C61.8126 5.98167 61.5803 5.551 61.2743 5.177C60.9796 4.79167 60.6113 4.49133 60.1693 4.276C59.7386 4.04933 59.2513 3.936 58.7073 3.936C58.1293 3.936 57.6193 4.055 57.1773 4.293C56.7466 4.51967 56.3839 4.82567 56.0893 5.211C55.7946 5.59633 55.5679 6.027 55.4093 6.503C55.2619 6.979 55.1883 7.46633 55.1883 7.965ZM66.3889 14V1.93H70.7749C72.0895 1.93 73.1889 2.202 74.0729 2.746C74.9569 3.27867 75.6199 4.004 76.0619 4.922C76.5039 5.82867 76.7249 6.83733 76.7249 7.948C76.7249 9.172 76.4812 10.2373 75.9939 11.144C75.5065 12.0507 74.8152 12.7533 73.9199 13.252C73.0359 13.7507 71.9875 14 70.7749 14H66.3889ZM74.3619 7.948C74.3619 7.166 74.2202 6.48033 73.9369 5.891C73.6535 5.29033 73.2455 4.82567 72.7129 4.497C72.1802 4.157 71.5342 3.987 70.7749 3.987H68.7349V11.943H70.7749C71.5455 11.943 72.1972 11.773 72.7299 11.433C73.2625 11.0817 73.6649 10.6057 73.9369 10.005C74.2202 9.393 74.3619 8.70733 74.3619 7.948ZM87.3524 3.987H83.4934V14H81.1644V3.987H77.3054V1.93H87.3524V3.987ZM97.2318 11.943V14H88.8508V1.93H97.0788V3.987H91.1968V6.894H96.2798V8.798H91.1968V11.943H97.2318ZM98.1139 7.88C98.1139 7.14333 98.2442 6.42367 98.5049 5.721C98.7769 5.007 99.1679 4.361 99.6779 3.783C100.188 3.19367 100.811 2.729 101.548 2.389C102.285 2.03767 103.123 1.862 104.064 1.862C105.175 1.862 106.132 2.10567 106.937 2.593C107.753 3.08033 108.359 3.715 108.756 4.497L106.954 5.738C106.75 5.28467 106.484 4.92767 106.155 4.667C105.826 4.395 105.475 4.208 105.101 4.106C104.727 3.99267 104.359 3.936 103.996 3.936C103.407 3.936 102.891 4.055 102.449 4.293C102.018 4.531 101.656 4.84267 101.361 5.228C101.066 5.61333 100.845 6.044 100.698 6.52C100.562 6.996 100.494 7.472 100.494 7.948C100.494 8.48067 100.579 8.99633 100.749 9.495C100.919 9.98233 101.157 10.4187 101.463 10.804C101.78 11.178 102.154 11.4783 102.585 11.705C103.027 11.9203 103.509 12.028 104.03 12.028C104.404 12.028 104.784 11.9657 105.169 11.841C105.554 11.7163 105.911 11.518 106.24 11.246C106.569 10.974 106.824 10.6227 107.005 10.192L108.926 11.297C108.688 11.8977 108.297 12.4077 107.753 12.827C107.22 13.2463 106.62 13.5637 105.951 13.779C105.282 13.9943 104.619 14.102 103.962 14.102C103.101 14.102 102.313 13.9263 101.599 13.575C100.885 13.2123 100.267 12.7363 99.7459 12.147C99.2359 11.5463 98.8336 10.8777 98.5389 10.141C98.2556 9.393 98.1139 8.63933 98.1139 7.88ZM120.648 1.93V14H118.319V8.849H112.845V14H110.499V1.93H112.845V6.809H118.319V1.93H120.648Z" fill="#171A1A"/>
<path fill-rule="evenodd" clip-rule="evenodd" d="M11 0.967712H0V11.4838C0 13.693 1.79086 15.4838 4 15.4838H15V4.96771C15 2.75857 13.2091 0.967712 11 0.967712ZM10 2.90323H2V10.5484C2 12.2052 3.34315 13.5484 5 13.5484H13V5.90323C13 4.24637 11.6569 2.90323 10 2.90323Z" fill="#F88500"/>
<path d="M25.708 18.9316H26.416L29.956 27.4516H29.068L27.964 24.7876H24.136L23.044 27.4516H22.144L25.708 18.9316ZM27.772 24.1276L26.056 19.9156L24.316 24.1276H27.772ZM37.0094 21.9196C36.4654 21.9356 35.9854 22.0876 35.5694 22.3756C35.1614 22.6636 34.8734 23.0596 34.7054 23.5636V27.4516H33.8894V21.1996H34.6574V22.6996C34.8734 22.2596 35.1574 21.9036 35.5094 21.6316C35.8694 21.3596 36.2494 21.2076 36.6494 21.1756C36.7294 21.1676 36.7974 21.1636 36.8534 21.1636C36.9174 21.1636 36.9694 21.1676 37.0094 21.1756V21.9196ZM43.4892 27.5716C43.0332 27.5716 42.6132 27.4876 42.2292 27.3196C41.8532 27.1436 41.5212 26.9036 41.2332 26.5996C40.9532 26.2956 40.7332 25.9476 40.5732 25.5556C40.4212 25.1636 40.3452 24.7476 40.3452 24.3076C40.3452 23.7156 40.4772 23.1756 40.7412 22.6876C41.0052 22.1996 41.3732 21.8116 41.8452 21.5236C42.3172 21.2356 42.8612 21.0916 43.4772 21.0916C44.0612 21.0916 44.5772 21.2276 45.0252 21.4996C45.4732 21.7636 45.8052 22.1236 46.0212 22.5796L45.2292 22.8316C45.0532 22.5116 44.8052 22.2636 44.4852 22.0876C44.1732 21.9036 43.8252 21.8116 43.4412 21.8116C43.0252 21.8116 42.6452 21.9196 42.3012 22.1356C41.9572 22.3516 41.6812 22.6476 41.4732 23.0236C41.2732 23.3996 41.1732 23.8276 41.1732 24.3076C41.1732 24.7796 41.2772 25.2076 41.4852 25.5916C41.6932 25.9756 41.9692 26.2836 42.3132 26.5156C42.6572 26.7396 43.0372 26.8516 43.4532 26.8516C43.7252 26.8516 43.9852 26.8036 44.2332 26.7076C44.4892 26.6116 44.7092 26.4836 44.8932 26.3236C45.0852 26.1556 45.2132 25.9756 45.2772 25.7836L46.0812 26.0236C45.9692 26.3196 45.7812 26.5876 45.5172 26.8276C45.2612 27.0596 44.9572 27.2436 44.6052 27.3796C44.2612 27.5076 43.8892 27.5716 43.4892 27.5716ZM55.4991 27.4516H54.6831V23.9596C54.6831 23.2556 54.5591 22.7276 54.3111 22.3756C54.0631 22.0156 53.7071 21.8356 53.2431 21.8356C52.9391 21.8356 52.6351 21.9156 52.3311 22.0756C52.0351 22.2276 51.7711 22.4396 51.5391 22.7116C51.3151 22.9756 51.1551 23.2796 51.0591 23.6236V27.4516H50.2431V18.6916H51.0591V22.6156C51.3071 22.1516 51.6511 21.7836 52.0911 21.5116C52.5391 21.2316 53.0151 21.0916 53.5191 21.0916C53.8791 21.0916 54.1831 21.1556 54.4311 21.2836C54.6871 21.4116 54.8911 21.5996 55.0431 21.8476C55.2031 22.0876 55.3191 22.3716 55.3911 22.6996C55.4631 23.0196 55.4991 23.3836 55.4991 23.7916V27.4516ZM60.1192 27.4516V21.1996H60.9352V27.4516H60.1192ZM60.1192 19.8916V18.6916H60.9352V19.8916H60.1192ZM68.6125 27.1516C68.5485 27.1756 68.4485 27.2196 68.3125 27.2836C68.1765 27.3476 68.0125 27.4036 67.8205 27.4516C67.6285 27.4996 67.4205 27.5236 67.1965 27.5236C66.9645 27.5236 66.7445 27.4796 66.5365 27.3916C66.3365 27.3036 66.1765 27.1716 66.0565 26.9956C65.9365 26.8116 65.8765 26.5876 65.8765 26.3236V21.8476H65.0125V21.1996H65.8765V19.0876H66.6925V21.1996H68.1325V21.8476H66.6925V26.0956C66.7085 26.3196 66.7885 26.4876 66.9325 26.5996C67.0845 26.7116 67.2565 26.7676 67.4485 26.7676C67.6725 26.7676 67.8765 26.7316 68.0605 26.6596C68.2445 26.5796 68.3565 26.5236 68.3965 26.4916L68.6125 27.1516ZM75.1066 27.5716C74.6586 27.5716 74.2426 27.4876 73.8586 27.3196C73.4746 27.1436 73.1426 26.9076 72.8626 26.6116C72.5826 26.3076 72.3626 25.9596 72.2026 25.5676C72.0506 25.1756 71.9746 24.7556 71.9746 24.3076C71.9746 23.7236 72.1066 23.1876 72.3706 22.6996C72.6426 22.2116 73.0146 21.8236 73.4866 21.5356C73.9586 21.2396 74.4946 21.0916 75.0946 21.0916C75.7106 21.0916 76.2466 21.2396 76.7026 21.5356C77.1666 21.8316 77.5306 22.2236 77.7946 22.7116C78.0586 23.1916 78.1906 23.7196 78.1906 24.2956C78.1906 24.3596 78.1906 24.4236 78.1906 24.4876C78.1906 24.5436 78.1866 24.5876 78.1786 24.6196H72.8266C72.8666 25.0676 72.9906 25.4676 73.1986 25.8196C73.4146 26.1636 73.6906 26.4396 74.0266 26.6476C74.3706 26.8476 74.7426 26.9476 75.1426 26.9476C75.5506 26.9476 75.9346 26.8436 76.2946 26.6356C76.6626 26.4276 76.9186 26.1556 77.0626 25.8196L77.7706 26.0116C77.6426 26.3076 77.4466 26.5756 77.1826 26.8156C76.9186 27.0556 76.6066 27.2436 76.2466 27.3796C75.8946 27.5076 75.5146 27.5716 75.1066 27.5716ZM72.8026 24.0316H77.4226C77.3906 23.5756 77.2666 23.1756 77.0506 22.8316C76.8426 22.4876 76.5666 22.2196 76.2226 22.0276C75.8866 21.8276 75.5146 21.7276 75.1066 21.7276C74.6986 21.7276 74.3266 21.8276 73.9906 22.0276C73.6546 22.2196 73.3786 22.4916 73.1626 22.8436C72.9546 23.1876 72.8346 23.5836 72.8026 24.0316ZM85.0415 27.5716C84.5855 27.5716 84.1655 27.4876 83.7815 27.3196C83.4055 27.1436 83.0735 26.9036 82.7855 26.5996C82.5055 26.2956 82.2855 25.9476 82.1255 25.5556C81.9735 25.1636 81.8975 24.7476 81.8975 24.3076C81.8975 23.7156 82.0295 23.1756 82.2935 22.6876C82.5575 22.1996 82.9255 21.8116 83.3975 21.5236C83.8695 21.2356 84.4135 21.0916 85.0295 21.0916C85.6135 21.0916 86.1295 21.2276 86.5775 21.4996C87.0255 21.7636 87.3575 22.1236 87.5735 22.5796L86.7815 22.8316C86.6055 22.5116 86.3575 22.2636 86.0375 22.0876C85.7255 21.9036 85.3775 21.8116 84.9935 21.8116C84.5775 21.8116 84.1975 21.9196 83.8535 22.1356C83.5095 22.3516 83.2335 22.6476 83.0255 23.0236C82.8255 23.3996 82.7255 23.8276 82.7255 24.3076C82.7255 24.7796 82.8295 25.2076 83.0375 25.5916C83.2455 25.9756 83.5215 26.2836 83.8655 26.5156C84.2095 26.7396 84.5895 26.8516 85.0055 26.8516C85.2775 26.8516 85.5375 26.8036 85.7855 26.7076C86.0415 26.6116 86.2615 26.4836 86.4455 26.3236C86.6375 26.1556 86.7655 25.9756 86.8295 25.7836L87.6335 26.0236C87.5215 26.3196 87.3335 26.5876 87.0695 26.8276C86.8135 27.0596 86.5095 27.2436 86.1575 27.3796C85.8135 27.5076 85.4415 27.5716 85.0415 27.5716ZM94.7955 27.1516C94.7315 27.1756 94.6315 27.2196 94.4955 27.2836C94.3595 27.3476 94.1955 27.4036 94.0035 27.4516C93.8115 27.4996 93.6035 27.5236 93.3795 27.5236C93.1475 27.5236 92.9275 27.4796 92.7195 27.3916C92.5195 27.3036 92.3595 27.1716 92.2395 26.9956C92.1195 26.8116 92.0595 26.5876 92.0595 26.3236V21.8476H91.1955V21.1996H92.0595V19.0876H92.8755V21.1996H94.3155V21.8476H92.8755V26.0956C92.8915 26.3196 92.9715 26.4876 93.1155 26.5996C93.2675 26.7116 93.4395 26.7676 93.6315 26.7676C93.8555 26.7676 94.0595 26.7316 94.2435 26.6596C94.4275 26.5796 94.5395 26.5236 94.5795 26.4916L94.7955 27.1516ZM98.635 24.8716V21.1996H99.451V24.7276C99.451 25.4396 99.571 25.9716 99.811 26.3236C100.059 26.6756 100.423 26.8516 100.903 26.8516C101.223 26.8516 101.531 26.7836 101.827 26.6476C102.131 26.5036 102.399 26.3036 102.631 26.0476C102.863 25.7836 103.039 25.4796 103.159 25.1356V21.1996H103.975V26.4676C103.975 26.5796 103.999 26.6636 104.047 26.7196C104.095 26.7676 104.167 26.7956 104.263 26.8036V27.4516C104.167 27.4596 104.091 27.4636 104.035 27.4636C103.979 27.4716 103.927 27.4756 103.879 27.4756C103.719 27.4596 103.579 27.3956 103.459 27.2836C103.347 27.1716 103.287 27.0356 103.279 26.8756L103.255 26.0356C102.983 26.5156 102.611 26.8916 102.139 27.1636C101.675 27.4356 101.171 27.5716 100.627 27.5716C99.971 27.5716 99.475 27.3436 99.139 26.8876C98.803 26.4316 98.635 25.7596 98.635 24.8716ZM111.82 21.9196C111.276 21.9356 110.796 22.0876 110.38 22.3756C109.972 22.6636 109.684 23.0596 109.516 23.5636V27.4516H108.7V21.1996H109.468V22.6996C109.684 22.2596 109.968 21.9036 110.32 21.6316C110.68 21.3596 111.06 21.2076 111.46 21.1756C111.54 21.1676 111.608 21.1636 111.664 21.1636C111.728 21.1636 111.78 21.1676 111.82 21.1756V21.9196ZM118.288 27.5716C117.84 27.5716 117.424 27.4876 117.04 27.3196C116.656 27.1436 116.324 26.9076 116.044 26.6116C115.764 26.3076 115.544 25.9596 115.384 25.5676C115.232 25.1756 115.156 24.7556 115.156 24.3076C115.156 23.7236 115.288 23.1876 115.552 22.6996C115.824 22.2116 116.196 21.8236 116.668 21.5356C117.14 21.2396 117.676 21.0916 118.276 21.0916C118.892 21.0916 119.428 21.2396 119.884 21.5356C120.348 21.8316 120.712 22.2236 120.976 22.7116C121.24 23.1916 121.372 23.7196 121.372 24.2956C121.372 24.3596 121.372 24.4236 121.372 24.4876C121.372 24.5436 121.368 24.5876 121.36 24.6196H116.008C116.048 25.0676 116.172 25.4676 116.38 25.8196C116.596 26.1636 116.872 26.4396 117.208 26.6476C117.552 26.8476 117.924 26.9476 118.324 26.9476C118.732 26.9476 119.116 26.8436 119.476 26.6356C119.844 26.4276 120.1 26.1556 120.244 25.8196L120.952 26.0116C120.824 26.3076 120.628 26.5756 120.364 26.8156C120.1 27.0556 119.788 27.2436 119.428 27.3796C119.076 27.5076 118.696 27.5716 118.288 27.5716ZM115.984 24.0316H120.604C120.572 23.5756 120.448 23.1756 120.232 22.8316C120.024 22.4876 119.748 22.2196 119.404 22.0276C119.068 21.8276 118.696 21.7276 118.288 21.7276C117.88 21.7276 117.508 21.8276 117.172 22.0276C116.836 22.2196 116.56 22.4916 116.344 22.8436C116.136 23.1876 116.016 23.5836 115.984 24.0316Z" fill="#171A1A" fill-opacity="0.45"/>
</svg>
