<svg width="17" height="16" viewBox="0 0 17 16" fill="none" xmlns="http://www.w3.org/2000/svg">
<path d="M8.9991 4.6487C6.72894 4.6487 4.89782 6.36576 4.89782 8.49451C4.89782 10.6233 6.72894 12.3403 8.9991 12.3403C11.2693 12.3403 13.1004 10.6233 13.1004 8.49451C13.1004 6.36576 11.2693 4.6487 8.9991 4.6487ZM8.9991 10.9948C7.53206 10.9948 6.33273 9.87351 6.33273 8.49451C6.33273 7.1155 7.52849 5.99423 8.9991 5.99423C10.4697 5.99423 11.6655 7.1155 11.6655 8.49451C11.6655 9.87351 10.4661 10.9948 8.9991 10.9948ZM14.2248 4.49138C14.2248 4.9901 13.7964 5.3884 13.2681 5.3884C12.7363 5.3884 12.3115 4.98675 12.3115 4.49138C12.3115 3.99601 12.7399 3.59436 13.2681 3.59436C13.7964 3.59436 14.2248 3.99601 14.2248 4.49138ZM16.9411 5.40179C16.8804 4.20019 16.5877 3.13581 15.649 2.25887C14.7138 1.38193 13.5787 1.10747 12.2973 1.04722C10.9766 0.976935 7.01806 0.976935 5.69737 1.04722C4.41951 1.10412 3.28443 1.37859 2.34567 2.25552C1.40691 3.13246 1.11778 4.19684 1.05353 5.39845C0.978575 6.63687 0.978575 10.3488 1.05353 11.5872C1.11421 12.7888 1.40691 13.8532 2.34567 14.7301C3.28443 15.6071 4.41594 15.8815 5.69737 15.9418C7.01806 16.0121 10.9766 16.0121 12.2973 15.9418C13.5787 15.8849 14.7138 15.6104 15.649 14.7301C16.5842 13.8532 16.8768 12.7888 16.9411 11.5872C17.0161 10.3488 17.0161 6.64022 16.9411 5.40179ZM15.2349 12.916C14.9565 13.572 14.4175 14.0775 13.7143 14.3419C12.6613 14.7335 10.1627 14.6431 8.9991 14.6431C7.83546 14.6431 5.33329 14.7301 4.28387 14.3419C3.58426 14.0808 3.04528 13.5754 2.76329 12.916C2.34567 11.9286 2.44204 9.58566 2.44204 8.49451C2.44204 7.40335 2.34924 5.05704 2.76329 4.073C3.04171 3.41697 3.58069 2.91155 4.28387 2.64713C5.33686 2.25552 7.83546 2.3459 8.9991 2.3459C10.1627 2.3459 12.6649 2.25887 13.7143 2.64713C14.4139 2.90821 14.9529 3.41362 15.2349 4.073C15.6525 5.06039 15.5562 7.40335 15.5562 8.49451C15.5562 9.58566 15.6525 11.932 15.2349 12.916Z" fill="#333333" fill-opacity="0.5"/>
</svg>
