<svg width="17" height="14" viewBox="0 0 17 14" fill="none" xmlns="http://www.w3.org/2000/svg">
<path d="M15.3526 3.7424C15.3628 3.88458 15.3628 4.02679 15.3628 4.16897C15.3628 8.50567 12.0633 13.5026 6.03285 13.5026C4.17497 13.5026 2.4491 12.9643 0.997314 12.0299C1.26128 12.0604 1.51506 12.0705 1.78919 12.0705C3.32216 12.0705 4.73335 11.5526 5.86025 10.669C4.41863 10.6385 3.2105 9.69398 2.79425 8.39397C2.99731 8.42442 3.20035 8.44474 3.41356 8.44474C3.70797 8.44474 4.00241 8.4041 4.2765 8.33304C2.77397 8.02832 1.64703 6.70803 1.64703 5.1135V5.07289C2.08356 5.31664 2.59122 5.46898 3.12925 5.48927C2.246 4.90019 1.66735 3.89474 1.66735 2.75723C1.66735 2.14786 1.82975 1.58927 2.11403 1.10177C3.72825 3.09239 6.15466 4.39237 8.87544 4.53458C8.82469 4.29083 8.79422 4.03695 8.79422 3.78304C8.79422 1.9752 10.2562 0.502563 12.0734 0.502563C13.0176 0.502563 13.8703 0.898656 14.4693 1.5385C15.2104 1.39632 15.9211 1.12209 16.5506 0.746315C16.3069 1.50805 15.7891 2.1479 15.1089 2.55412C15.7688 2.48306 16.4084 2.30021 16.9973 2.04632C16.5506 2.6963 15.9922 3.27518 15.3526 3.7424Z" fill="#333333" fill-opacity="0.5"/>
</svg>
